%TF.GenerationSoftware,KiCad,Pcbnew,8.0.6*%
%TF.CreationDate,2024-11-05T10:43:43+02:00*%
%TF.ProjectId,led_control_system,6c65645f-636f-46e7-9472-6f6c5f737973,rev?*%
%TF.SameCoordinates,Original*%
%TF.FileFunction,Copper,L2,Bot*%
%TF.FilePolarity,Positive*%
%FSLAX46Y46*%
G04 Gerber Fmt 4.6, Leading zero omitted, Abs format (unit mm)*
G04 Created by KiCad (PCBNEW 8.0.6) date 2024-11-05 10:43:43*
%MOMM*%
%LPD*%
G01*
G04 APERTURE LIST*
%TA.AperFunction,ComponentPad*%
%ADD10R,1.500000X1.050000*%
%TD*%
%TA.AperFunction,ComponentPad*%
%ADD11O,1.500000X1.050000*%
%TD*%
%TA.AperFunction,ComponentPad*%
%ADD12R,1.800000X1.800000*%
%TD*%
%TA.AperFunction,ComponentPad*%
%ADD13C,1.800000*%
%TD*%
%TA.AperFunction,ViaPad*%
%ADD14C,0.600000*%
%TD*%
%TA.AperFunction,ViaPad*%
%ADD15C,2.000000*%
%TD*%
%TA.AperFunction,Conductor*%
%ADD16C,0.200000*%
%TD*%
G04 APERTURE END LIST*
D10*
%TO.P,Q3,1,C*%
%TO.N,Net-(D2-K)*%
X158460000Y-89230000D03*
D11*
%TO.P,Q3,2,B*%
%TO.N,Net-(Q1-C)*%
X158460000Y-90500000D03*
%TO.P,Q3,3,E*%
%TO.N,Net-(Q3-E)*%
X158460000Y-91770000D03*
%TD*%
D10*
%TO.P,Q1,1,C*%
%TO.N,Net-(Q1-C)*%
X131140000Y-89230000D03*
D11*
%TO.P,Q1,2,B*%
%TO.N,Net-(Q1-B)*%
X131140000Y-90500000D03*
%TO.P,Q1,3,E*%
%TO.N,GND*%
X131140000Y-91770000D03*
%TD*%
D12*
%TO.P,D3,1,K*%
%TO.N,Net-(D3-K)*%
X171960000Y-76500000D03*
D13*
%TO.P,D3,2,A*%
%TO.N,+9V*%
X174500000Y-76500000D03*
%TD*%
D12*
%TO.P,D4,1,K*%
%TO.N,Net-(D4-K)*%
X185460000Y-76500000D03*
D13*
%TO.P,D4,2,A*%
%TO.N,+9V*%
X188000000Y-76500000D03*
%TD*%
D12*
%TO.P,D1,1,K*%
%TO.N,Net-(D1-K)*%
X144960000Y-76500000D03*
D13*
%TO.P,D1,2,A*%
%TO.N,+9V*%
X147500000Y-76500000D03*
%TD*%
D10*
%TO.P,Q4,1,C*%
%TO.N,Net-(D3-K)*%
X172140000Y-89230000D03*
D11*
%TO.P,Q4,2,B*%
%TO.N,Net-(Q1-C)*%
X172140000Y-90500000D03*
%TO.P,Q4,3,E*%
%TO.N,Net-(Q4-E)*%
X172140000Y-91770000D03*
%TD*%
D10*
%TO.P,Q5,1,C*%
%TO.N,Net-(D4-K)*%
X185640000Y-89230000D03*
D11*
%TO.P,Q5,2,B*%
%TO.N,Net-(Q1-C)*%
X185640000Y-90500000D03*
%TO.P,Q5,3,E*%
%TO.N,Net-(Q5-E)*%
X185640000Y-91770000D03*
%TD*%
D12*
%TO.P,D2,1,K*%
%TO.N,Net-(D2-K)*%
X161040000Y-76500000D03*
D13*
%TO.P,D2,2,A*%
%TO.N,+9V*%
X158500000Y-76500000D03*
%TD*%
D10*
%TO.P,Q2,1,C*%
%TO.N,Net-(D1-K)*%
X145140000Y-89230000D03*
D11*
%TO.P,Q2,2,B*%
%TO.N,Net-(Q1-C)*%
X145140000Y-90500000D03*
%TO.P,Q2,3,E*%
%TO.N,Net-(Q2-E)*%
X145140000Y-91770000D03*
%TD*%
D14*
%TO.N,Net-(MK1-+)*%
X108500000Y-88000000D03*
X113000000Y-103000000D03*
D15*
%TO.N,+9V*%
X110000000Y-114500000D03*
%TO.N,GND*%
X110000000Y-111000000D03*
%TD*%
D16*
%TO.N,Net-(MK1-+)*%
X108500000Y-101500000D02*
X108500000Y-88000000D01*
X110000000Y-103000000D02*
X108500000Y-101500000D01*
X113000000Y-103000000D02*
X110000000Y-103000000D01*
%TO.N,GND*%
X113000000Y-108000000D02*
X113000000Y-103600000D01*
X110000000Y-111000000D02*
X113000000Y-108000000D01*
%TD*%
%TA.AperFunction,Conductor*%
%TO.N,GND*%
G36*
X201943039Y-53019685D02*
G01*
X201988794Y-53072489D01*
X202000000Y-53124000D01*
X202000000Y-124876000D01*
X201980315Y-124943039D01*
X201927511Y-124988794D01*
X201876000Y-125000000D01*
X100624000Y-125000000D01*
X100556961Y-124980315D01*
X100511206Y-124927511D01*
X100500000Y-124876000D01*
X100500000Y-114499994D01*
X108494357Y-114499994D01*
X108494357Y-114500005D01*
X108514890Y-114747812D01*
X108514892Y-114747824D01*
X108575936Y-114988881D01*
X108675826Y-115216606D01*
X108811833Y-115424782D01*
X108811836Y-115424785D01*
X108980256Y-115607738D01*
X109176491Y-115760474D01*
X109395190Y-115878828D01*
X109630386Y-115959571D01*
X109875665Y-116000500D01*
X110124335Y-116000500D01*
X110369614Y-115959571D01*
X110604810Y-115878828D01*
X110823509Y-115760474D01*
X111019744Y-115607738D01*
X111188164Y-115424785D01*
X111324173Y-115216607D01*
X111424063Y-114988881D01*
X111485108Y-114747821D01*
X111505643Y-114500000D01*
X111485108Y-114252179D01*
X111424063Y-114011119D01*
X111324173Y-113783393D01*
X111188166Y-113575217D01*
X111166557Y-113551744D01*
X111019744Y-113392262D01*
X110823509Y-113239526D01*
X110823507Y-113239525D01*
X110823506Y-113239524D01*
X110604811Y-113121172D01*
X110604802Y-113121169D01*
X110369616Y-113040429D01*
X110124335Y-112999500D01*
X109875665Y-112999500D01*
X109630383Y-113040429D01*
X109395197Y-113121169D01*
X109395188Y-113121172D01*
X109176493Y-113239524D01*
X108980257Y-113392261D01*
X108811833Y-113575217D01*
X108675826Y-113783393D01*
X108575936Y-114011118D01*
X108514892Y-114252175D01*
X108514890Y-114252187D01*
X108494357Y-114499994D01*
X100500000Y-114499994D01*
X100500000Y-87999996D01*
X107694435Y-87999996D01*
X107694435Y-88000003D01*
X107714630Y-88179249D01*
X107714631Y-88179254D01*
X107774211Y-88349523D01*
X107870185Y-88502263D01*
X107872445Y-88505097D01*
X107873334Y-88507275D01*
X107873889Y-88508158D01*
X107873734Y-88508255D01*
X107898855Y-88569783D01*
X107899500Y-88582412D01*
X107899500Y-101413330D01*
X107899499Y-101413348D01*
X107899499Y-101579054D01*
X107899498Y-101579054D01*
X107940423Y-101731785D01*
X107969358Y-101781900D01*
X107969359Y-101781904D01*
X107969360Y-101781904D01*
X108019479Y-101868714D01*
X108019481Y-101868717D01*
X108138349Y-101987585D01*
X108138355Y-101987590D01*
X109515139Y-103364374D01*
X109515149Y-103364385D01*
X109519479Y-103368715D01*
X109519480Y-103368716D01*
X109631284Y-103480520D01*
X109631286Y-103480521D01*
X109631290Y-103480524D01*
X109768209Y-103559573D01*
X109768216Y-103559577D01*
X109880019Y-103589534D01*
X109920942Y-103600500D01*
X109920943Y-103600500D01*
X112417588Y-103600500D01*
X112484627Y-103620185D01*
X112494903Y-103627555D01*
X112497736Y-103629814D01*
X112497738Y-103629816D01*
X112650478Y-103725789D01*
X112820745Y-103785368D01*
X112820750Y-103785369D01*
X112999996Y-103805565D01*
X113000000Y-103805565D01*
X113000004Y-103805565D01*
X113179249Y-103785369D01*
X113179252Y-103785368D01*
X113179255Y-103785368D01*
X113349522Y-103725789D01*
X113502262Y-103629816D01*
X113629816Y-103502262D01*
X113725789Y-103349522D01*
X113785368Y-103179255D01*
X113805565Y-103000000D01*
X113785368Y-102820745D01*
X113725789Y-102650478D01*
X113629816Y-102497738D01*
X113502262Y-102370184D01*
X113491117Y-102363181D01*
X113349523Y-102274211D01*
X113179254Y-102214631D01*
X113179249Y-102214630D01*
X113000004Y-102194435D01*
X112999996Y-102194435D01*
X112820750Y-102214630D01*
X112820745Y-102214631D01*
X112650476Y-102274211D01*
X112497736Y-102370185D01*
X112494903Y-102372445D01*
X112492724Y-102373334D01*
X112491842Y-102373889D01*
X112491744Y-102373734D01*
X112430217Y-102398855D01*
X112417588Y-102399500D01*
X110300097Y-102399500D01*
X110233058Y-102379815D01*
X110212416Y-102363181D01*
X109136819Y-101287584D01*
X109103334Y-101226261D01*
X109100500Y-101199903D01*
X109100500Y-88657135D01*
X129889500Y-88657135D01*
X129889500Y-89802870D01*
X129889501Y-89802876D01*
X129895908Y-89862483D01*
X129946202Y-89997328D01*
X129946203Y-89997330D01*
X129946204Y-89997331D01*
X129947028Y-89998432D01*
X129947509Y-89999721D01*
X129950454Y-90005114D01*
X129949678Y-90005537D01*
X129971448Y-90063895D01*
X129962325Y-90120198D01*
X129928910Y-90200868D01*
X129928907Y-90200880D01*
X129889500Y-90398992D01*
X129889500Y-90601007D01*
X129928907Y-90799119D01*
X129928909Y-90799127D01*
X130006212Y-90985754D01*
X130060204Y-91066558D01*
X130081081Y-91133235D01*
X130062596Y-91200615D01*
X130060204Y-91204337D01*
X130006655Y-91284479D01*
X130006654Y-91284481D01*
X129929390Y-91471016D01*
X129929387Y-91471025D01*
X129919647Y-91520000D01*
X130774134Y-91520000D01*
X130798326Y-91522383D01*
X130801123Y-91522939D01*
X130813995Y-91525499D01*
X130813996Y-91525500D01*
X130813997Y-91525500D01*
X130854170Y-91525500D01*
X130839925Y-91539745D01*
X130790556Y-91625255D01*
X130765000Y-91720630D01*
X130765000Y-91819370D01*
X130790556Y-91914745D01*
X130839925Y-92000255D01*
X130859670Y-92020000D01*
X129919647Y-92020000D01*
X129929387Y-92068974D01*
X129929390Y-92068983D01*
X130006652Y-92255513D01*
X130006659Y-92255526D01*
X130118829Y-92423399D01*
X130118832Y-92423403D01*
X130261596Y-92566167D01*
X130261600Y-92566170D01*
X130429473Y-92678340D01*
X130429486Y-92678347D01*
X130616016Y-92755609D01*
X130616025Y-92755612D01*
X130814041Y-92794999D01*
X130814045Y-92795000D01*
X130890000Y-92795000D01*
X130890000Y-92050330D01*
X130909745Y-92070075D01*
X130995255Y-92119444D01*
X131090630Y-92145000D01*
X131189370Y-92145000D01*
X131284745Y-92119444D01*
X131370255Y-92070075D01*
X131390000Y-92050330D01*
X131390000Y-92795000D01*
X131465955Y-92795000D01*
X131465958Y-92794999D01*
X131663974Y-92755612D01*
X131663983Y-92755609D01*
X131850513Y-92678347D01*
X131850526Y-92678340D01*
X132018399Y-92566170D01*
X132018403Y-92566167D01*
X132161167Y-92423403D01*
X132161170Y-92423399D01*
X132273340Y-92255526D01*
X132273347Y-92255513D01*
X132350609Y-92068983D01*
X132350612Y-92068974D01*
X132360353Y-92020000D01*
X131420330Y-92020000D01*
X131440075Y-92000255D01*
X131489444Y-91914745D01*
X131515000Y-91819370D01*
X131515000Y-91720630D01*
X131489444Y-91625255D01*
X131440075Y-91539745D01*
X131425830Y-91525500D01*
X131466004Y-91525500D01*
X131466004Y-91525499D01*
X131479473Y-91522820D01*
X131481674Y-91522383D01*
X131505866Y-91520000D01*
X132360353Y-91520000D01*
X132350612Y-91471025D01*
X132350609Y-91471016D01*
X132273347Y-91284486D01*
X132273343Y-91284479D01*
X132219795Y-91204340D01*
X132198917Y-91137662D01*
X132217401Y-91070282D01*
X132219733Y-91066652D01*
X132273786Y-90985756D01*
X132351091Y-90799127D01*
X132390500Y-90601003D01*
X132390500Y-90398997D01*
X132351091Y-90200873D01*
X132317673Y-90120198D01*
X132310205Y-90050730D01*
X132329964Y-90005340D01*
X132329547Y-90005112D01*
X132332095Y-90000444D01*
X132332972Y-89998431D01*
X132333796Y-89997331D01*
X132384091Y-89862483D01*
X132390500Y-89802873D01*
X132390499Y-88657135D01*
X143889500Y-88657135D01*
X143889500Y-89802870D01*
X143889501Y-89802876D01*
X143895908Y-89862483D01*
X143946202Y-89997328D01*
X143946203Y-89997330D01*
X143946204Y-89997331D01*
X143947028Y-89998432D01*
X143947509Y-89999721D01*
X143950454Y-90005114D01*
X143949678Y-90005537D01*
X143971448Y-90063895D01*
X143962325Y-90120198D01*
X143928910Y-90200868D01*
X143928907Y-90200880D01*
X143889500Y-90398992D01*
X143889500Y-90601007D01*
X143928907Y-90799119D01*
X143928909Y-90799127D01*
X144006213Y-90985755D01*
X144059904Y-91066109D01*
X144080782Y-91132787D01*
X144062297Y-91200167D01*
X144059904Y-91203891D01*
X144006213Y-91284244D01*
X143928909Y-91470872D01*
X143928907Y-91470880D01*
X143889500Y-91668992D01*
X143889500Y-91871007D01*
X143928907Y-92069119D01*
X143928909Y-92069127D01*
X144006212Y-92255752D01*
X144006217Y-92255762D01*
X144118441Y-92423718D01*
X144261281Y-92566558D01*
X144429237Y-92678782D01*
X144429241Y-92678784D01*
X144429244Y-92678786D01*
X144615873Y-92756091D01*
X144811478Y-92794999D01*
X144813992Y-92795499D01*
X144813996Y-92795500D01*
X144813997Y-92795500D01*
X145466004Y-92795500D01*
X145466005Y-92795499D01*
X145664127Y-92756091D01*
X145850756Y-92678786D01*
X145851424Y-92678340D01*
X146018718Y-92566558D01*
X146161558Y-92423718D01*
X146273782Y-92255762D01*
X146273782Y-92255761D01*
X146273786Y-92255756D01*
X146351091Y-92069127D01*
X146390500Y-91871003D01*
X146390500Y-91668997D01*
X146351091Y-91470873D01*
X146273884Y-91284481D01*
X146273787Y-91284246D01*
X146273786Y-91284244D01*
X146220094Y-91203889D01*
X146199217Y-91137214D01*
X146217701Y-91069834D01*
X146220078Y-91066134D01*
X146273786Y-90985756D01*
X146351091Y-90799127D01*
X146390500Y-90601003D01*
X146390500Y-90398997D01*
X146351091Y-90200873D01*
X146317673Y-90120198D01*
X146310205Y-90050730D01*
X146329964Y-90005340D01*
X146329547Y-90005112D01*
X146332095Y-90000444D01*
X146332972Y-89998431D01*
X146333796Y-89997331D01*
X146384091Y-89862483D01*
X146390500Y-89802873D01*
X146390499Y-88657135D01*
X157209500Y-88657135D01*
X157209500Y-89802870D01*
X157209501Y-89802876D01*
X157215908Y-89862483D01*
X157266202Y-89997328D01*
X157266203Y-89997330D01*
X157266204Y-89997331D01*
X157267028Y-89998432D01*
X157267509Y-89999721D01*
X157270454Y-90005114D01*
X157269678Y-90005537D01*
X157291448Y-90063895D01*
X157282325Y-90120198D01*
X157248910Y-90200868D01*
X157248907Y-90200880D01*
X157209500Y-90398992D01*
X157209500Y-90601007D01*
X157248907Y-90799119D01*
X157248909Y-90799127D01*
X157326213Y-90985755D01*
X157379904Y-91066109D01*
X157400782Y-91132787D01*
X157382297Y-91200167D01*
X157379904Y-91203891D01*
X157326213Y-91284244D01*
X157248909Y-91470872D01*
X157248907Y-91470880D01*
X157209500Y-91668992D01*
X157209500Y-91871007D01*
X157248907Y-92069119D01*
X157248909Y-92069127D01*
X157326212Y-92255752D01*
X157326217Y-92255762D01*
X157438441Y-92423718D01*
X157581281Y-92566558D01*
X157749237Y-92678782D01*
X157749241Y-92678784D01*
X157749244Y-92678786D01*
X157935873Y-92756091D01*
X158131478Y-92794999D01*
X158133992Y-92795499D01*
X158133996Y-92795500D01*
X158133997Y-92795500D01*
X158786004Y-92795500D01*
X158786005Y-92795499D01*
X158984127Y-92756091D01*
X159170756Y-92678786D01*
X159171424Y-92678340D01*
X159338718Y-92566558D01*
X159481558Y-92423718D01*
X159593782Y-92255762D01*
X159593782Y-92255761D01*
X159593786Y-92255756D01*
X159671091Y-92069127D01*
X159710500Y-91871003D01*
X159710500Y-91668997D01*
X159671091Y-91470873D01*
X159593884Y-91284481D01*
X159593787Y-91284246D01*
X159593786Y-91284244D01*
X159540094Y-91203889D01*
X159519217Y-91137214D01*
X159537701Y-91069834D01*
X159540078Y-91066134D01*
X159593786Y-90985756D01*
X159671091Y-90799127D01*
X159710500Y-90601003D01*
X159710500Y-90398997D01*
X159671091Y-90200873D01*
X159637673Y-90120198D01*
X159630205Y-90050730D01*
X159649964Y-90005340D01*
X159649547Y-90005112D01*
X159652095Y-90000444D01*
X159652972Y-89998431D01*
X159653796Y-89997331D01*
X159704091Y-89862483D01*
X159710500Y-89802873D01*
X159710499Y-88657135D01*
X170889500Y-88657135D01*
X170889500Y-89802870D01*
X170889501Y-89802876D01*
X170895908Y-89862483D01*
X170946202Y-89997328D01*
X170946203Y-89997330D01*
X170946204Y-89997331D01*
X170947028Y-89998432D01*
X170947509Y-89999721D01*
X170950454Y-90005114D01*
X170949678Y-90005537D01*
X170971448Y-90063895D01*
X170962325Y-90120198D01*
X170928910Y-90200868D01*
X170928907Y-90200880D01*
X170889500Y-90398992D01*
X170889500Y-90601007D01*
X170928907Y-90799119D01*
X170928909Y-90799127D01*
X171006213Y-90985755D01*
X171059904Y-91066109D01*
X171080782Y-91132787D01*
X171062297Y-91200167D01*
X171059904Y-91203891D01*
X171006213Y-91284244D01*
X170928909Y-91470872D01*
X170928907Y-91470880D01*
X170889500Y-91668992D01*
X170889500Y-91871007D01*
X170928907Y-92069119D01*
X170928909Y-92069127D01*
X171006212Y-92255752D01*
X171006217Y-92255762D01*
X171118441Y-92423718D01*
X171261281Y-92566558D01*
X171429237Y-92678782D01*
X171429241Y-92678784D01*
X171429244Y-92678786D01*
X171615873Y-92756091D01*
X171811478Y-92794999D01*
X171813992Y-92795499D01*
X171813996Y-92795500D01*
X171813997Y-92795500D01*
X172466004Y-92795500D01*
X172466005Y-92795499D01*
X172664127Y-92756091D01*
X172850756Y-92678786D01*
X172851424Y-92678340D01*
X173018718Y-92566558D01*
X173161558Y-92423718D01*
X173273782Y-92255762D01*
X173273782Y-92255761D01*
X173273786Y-92255756D01*
X173351091Y-92069127D01*
X173390500Y-91871003D01*
X173390500Y-91668997D01*
X173351091Y-91470873D01*
X173273884Y-91284481D01*
X173273787Y-91284246D01*
X173273786Y-91284244D01*
X173220094Y-91203889D01*
X173199217Y-91137214D01*
X173217701Y-91069834D01*
X173220078Y-91066134D01*
X173273786Y-90985756D01*
X173351091Y-90799127D01*
X173390500Y-90601003D01*
X173390500Y-90398997D01*
X173351091Y-90200873D01*
X173317673Y-90120198D01*
X173310205Y-90050730D01*
X173329964Y-90005340D01*
X173329547Y-90005112D01*
X173332095Y-90000444D01*
X173332972Y-89998431D01*
X173333796Y-89997331D01*
X173384091Y-89862483D01*
X173390500Y-89802873D01*
X173390499Y-88657135D01*
X184389500Y-88657135D01*
X184389500Y-89802870D01*
X184389501Y-89802876D01*
X184395908Y-89862483D01*
X184446202Y-89997328D01*
X184446203Y-89997330D01*
X184446204Y-89997331D01*
X184447028Y-89998432D01*
X184447509Y-89999721D01*
X184450454Y-90005114D01*
X184449678Y-90005537D01*
X184471448Y-90063895D01*
X184462325Y-90120198D01*
X184428910Y-90200868D01*
X184428907Y-90200880D01*
X184389500Y-90398992D01*
X184389500Y-90601007D01*
X184428907Y-90799119D01*
X184428909Y-90799127D01*
X184506213Y-90985755D01*
X184559904Y-91066109D01*
X184580782Y-91132787D01*
X184562297Y-91200167D01*
X184559904Y-91203891D01*
X184506213Y-91284244D01*
X184428909Y-91470872D01*
X184428907Y-91470880D01*
X184389500Y-91668992D01*
X184389500Y-91871007D01*
X184428907Y-92069119D01*
X184428909Y-92069127D01*
X184506212Y-92255752D01*
X184506217Y-92255762D01*
X184618441Y-92423718D01*
X184761281Y-92566558D01*
X184929237Y-92678782D01*
X184929241Y-92678784D01*
X184929244Y-92678786D01*
X185115873Y-92756091D01*
X185311478Y-92794999D01*
X185313992Y-92795499D01*
X185313996Y-92795500D01*
X185313997Y-92795500D01*
X185966004Y-92795500D01*
X185966005Y-92795499D01*
X186164127Y-92756091D01*
X186350756Y-92678786D01*
X186351424Y-92678340D01*
X186518718Y-92566558D01*
X186661558Y-92423718D01*
X186773782Y-92255762D01*
X186773782Y-92255761D01*
X186773786Y-92255756D01*
X186851091Y-92069127D01*
X186890500Y-91871003D01*
X186890500Y-91668997D01*
X186851091Y-91470873D01*
X186773884Y-91284481D01*
X186773787Y-91284246D01*
X186773786Y-91284244D01*
X186720094Y-91203889D01*
X186699217Y-91137214D01*
X186717701Y-91069834D01*
X186720078Y-91066134D01*
X186773786Y-90985756D01*
X186851091Y-90799127D01*
X186890500Y-90601003D01*
X186890500Y-90398997D01*
X186851091Y-90200873D01*
X186817673Y-90120198D01*
X186810205Y-90050730D01*
X186829964Y-90005340D01*
X186829547Y-90005112D01*
X186832095Y-90000444D01*
X186832972Y-89998431D01*
X186833796Y-89997331D01*
X186884091Y-89862483D01*
X186890500Y-89802873D01*
X186890499Y-88657128D01*
X186884091Y-88597517D01*
X186878457Y-88582412D01*
X186833797Y-88462671D01*
X186833793Y-88462664D01*
X186747547Y-88347455D01*
X186747544Y-88347452D01*
X186632335Y-88261206D01*
X186632328Y-88261202D01*
X186497482Y-88210908D01*
X186497483Y-88210908D01*
X186437883Y-88204501D01*
X186437881Y-88204500D01*
X186437873Y-88204500D01*
X186437864Y-88204500D01*
X184842129Y-88204500D01*
X184842123Y-88204501D01*
X184782516Y-88210908D01*
X184647671Y-88261202D01*
X184647664Y-88261206D01*
X184532455Y-88347452D01*
X184532452Y-88347455D01*
X184446206Y-88462664D01*
X184446202Y-88462671D01*
X184395908Y-88597517D01*
X184389501Y-88657116D01*
X184389501Y-88657123D01*
X184389500Y-88657135D01*
X173390499Y-88657135D01*
X173390499Y-88657128D01*
X173384091Y-88597517D01*
X173378457Y-88582412D01*
X173333797Y-88462671D01*
X173333793Y-88462664D01*
X173247547Y-88347455D01*
X173247544Y-88347452D01*
X173132335Y-88261206D01*
X173132328Y-88261202D01*
X172997482Y-88210908D01*
X172997483Y-88210908D01*
X172937883Y-88204501D01*
X172937881Y-88204500D01*
X172937873Y-88204500D01*
X172937864Y-88204500D01*
X171342129Y-88204500D01*
X171342123Y-88204501D01*
X171282516Y-88210908D01*
X171147671Y-88261202D01*
X171147664Y-88261206D01*
X171032455Y-88347452D01*
X171032452Y-88347455D01*
X170946206Y-88462664D01*
X170946202Y-88462671D01*
X170895908Y-88597517D01*
X170889501Y-88657116D01*
X170889501Y-88657123D01*
X170889500Y-88657135D01*
X159710499Y-88657135D01*
X159710499Y-88657128D01*
X159704091Y-88597517D01*
X159698457Y-88582412D01*
X159653797Y-88462671D01*
X159653793Y-88462664D01*
X159567547Y-88347455D01*
X159567544Y-88347452D01*
X159452335Y-88261206D01*
X159452328Y-88261202D01*
X159317482Y-88210908D01*
X159317483Y-88210908D01*
X159257883Y-88204501D01*
X159257881Y-88204500D01*
X159257873Y-88204500D01*
X159257864Y-88204500D01*
X157662129Y-88204500D01*
X157662123Y-88204501D01*
X157602516Y-88210908D01*
X157467671Y-88261202D01*
X157467664Y-88261206D01*
X157352455Y-88347452D01*
X157352452Y-88347455D01*
X157266206Y-88462664D01*
X157266202Y-88462671D01*
X157215908Y-88597517D01*
X157209501Y-88657116D01*
X157209501Y-88657123D01*
X157209500Y-88657135D01*
X146390499Y-88657135D01*
X146390499Y-88657128D01*
X146384091Y-88597517D01*
X146378457Y-88582412D01*
X146333797Y-88462671D01*
X146333793Y-88462664D01*
X146247547Y-88347455D01*
X146247544Y-88347452D01*
X146132335Y-88261206D01*
X146132328Y-88261202D01*
X145997482Y-88210908D01*
X145997483Y-88210908D01*
X145937883Y-88204501D01*
X145937881Y-88204500D01*
X145937873Y-88204500D01*
X145937864Y-88204500D01*
X144342129Y-88204500D01*
X144342123Y-88204501D01*
X144282516Y-88210908D01*
X144147671Y-88261202D01*
X144147664Y-88261206D01*
X144032455Y-88347452D01*
X144032452Y-88347455D01*
X143946206Y-88462664D01*
X143946202Y-88462671D01*
X143895908Y-88597517D01*
X143889501Y-88657116D01*
X143889501Y-88657123D01*
X143889500Y-88657135D01*
X132390499Y-88657135D01*
X132390499Y-88657128D01*
X132384091Y-88597517D01*
X132378457Y-88582412D01*
X132333797Y-88462671D01*
X132333793Y-88462664D01*
X132247547Y-88347455D01*
X132247544Y-88347452D01*
X132132335Y-88261206D01*
X132132328Y-88261202D01*
X131997482Y-88210908D01*
X131997483Y-88210908D01*
X131937883Y-88204501D01*
X131937881Y-88204500D01*
X131937873Y-88204500D01*
X131937864Y-88204500D01*
X130342129Y-88204500D01*
X130342123Y-88204501D01*
X130282516Y-88210908D01*
X130147671Y-88261202D01*
X130147664Y-88261206D01*
X130032455Y-88347452D01*
X130032452Y-88347455D01*
X129946206Y-88462664D01*
X129946202Y-88462671D01*
X129895908Y-88597517D01*
X129889501Y-88657116D01*
X129889501Y-88657123D01*
X129889500Y-88657135D01*
X109100500Y-88657135D01*
X109100500Y-88582412D01*
X109120185Y-88515373D01*
X109127555Y-88505097D01*
X109129810Y-88502267D01*
X109129816Y-88502262D01*
X109225789Y-88349522D01*
X109285368Y-88179255D01*
X109305565Y-88000000D01*
X109285368Y-87820745D01*
X109225789Y-87650478D01*
X109129816Y-87497738D01*
X109002262Y-87370184D01*
X108849523Y-87274211D01*
X108679254Y-87214631D01*
X108679249Y-87214630D01*
X108500004Y-87194435D01*
X108499996Y-87194435D01*
X108320750Y-87214630D01*
X108320745Y-87214631D01*
X108150476Y-87274211D01*
X107997737Y-87370184D01*
X107870184Y-87497737D01*
X107774211Y-87650476D01*
X107714631Y-87820745D01*
X107714630Y-87820750D01*
X107694435Y-87999996D01*
X100500000Y-87999996D01*
X100500000Y-75552135D01*
X143559500Y-75552135D01*
X143559500Y-77447870D01*
X143559501Y-77447876D01*
X143565908Y-77507483D01*
X143616202Y-77642328D01*
X143616206Y-77642335D01*
X143702452Y-77757544D01*
X143702455Y-77757547D01*
X143817664Y-77843793D01*
X143817671Y-77843797D01*
X143952517Y-77894091D01*
X143952516Y-77894091D01*
X143959444Y-77894835D01*
X144012127Y-77900500D01*
X145907872Y-77900499D01*
X145967483Y-77894091D01*
X146102331Y-77843796D01*
X146217546Y-77757546D01*
X146303796Y-77642331D01*
X146332455Y-77565493D01*
X146374326Y-77509559D01*
X146439790Y-77485141D01*
X146508063Y-77499992D01*
X146539866Y-77524843D01*
X146545046Y-77530469D01*
X146548215Y-77533912D01*
X146548222Y-77533918D01*
X146731365Y-77676464D01*
X146731371Y-77676468D01*
X146731374Y-77676470D01*
X146935497Y-77786936D01*
X147049487Y-77826068D01*
X147155015Y-77862297D01*
X147155017Y-77862297D01*
X147155019Y-77862298D01*
X147383951Y-77900500D01*
X147383952Y-77900500D01*
X147616048Y-77900500D01*
X147616049Y-77900500D01*
X147844981Y-77862298D01*
X148064503Y-77786936D01*
X148268626Y-77676470D01*
X148451784Y-77533913D01*
X148608979Y-77363153D01*
X148735924Y-77168849D01*
X148829157Y-76956300D01*
X148886134Y-76731305D01*
X148905300Y-76500000D01*
X148905300Y-76499993D01*
X157094700Y-76499993D01*
X157094700Y-76500006D01*
X157113864Y-76731297D01*
X157113866Y-76731308D01*
X157170842Y-76956300D01*
X157264075Y-77168848D01*
X157391016Y-77363147D01*
X157391019Y-77363151D01*
X157391021Y-77363153D01*
X157548216Y-77533913D01*
X157548219Y-77533915D01*
X157548222Y-77533918D01*
X157731365Y-77676464D01*
X157731371Y-77676468D01*
X157731374Y-77676470D01*
X157935497Y-77786936D01*
X158049487Y-77826068D01*
X158155015Y-77862297D01*
X158155017Y-77862297D01*
X158155019Y-77862298D01*
X158383951Y-77900500D01*
X158383952Y-77900500D01*
X158616048Y-77900500D01*
X158616049Y-77900500D01*
X158844981Y-77862298D01*
X159064503Y-77786936D01*
X159268626Y-77676470D01*
X159451784Y-77533913D01*
X159460130Y-77524846D01*
X159520010Y-77488854D01*
X159589849Y-77490949D01*
X159647468Y-77530469D01*
X159667544Y-77565491D01*
X159696203Y-77642330D01*
X159696206Y-77642335D01*
X159782452Y-77757544D01*
X159782455Y-77757547D01*
X159897664Y-77843793D01*
X159897671Y-77843797D01*
X160032517Y-77894091D01*
X160032516Y-77894091D01*
X160039444Y-77894835D01*
X160092127Y-77900500D01*
X161987872Y-77900499D01*
X162047483Y-77894091D01*
X162182331Y-77843796D01*
X162297546Y-77757546D01*
X162383796Y-77642331D01*
X162434091Y-77507483D01*
X162440500Y-77447873D01*
X162440499Y-75552135D01*
X170559500Y-75552135D01*
X170559500Y-77447870D01*
X170559501Y-77447876D01*
X170565908Y-77507483D01*
X170616202Y-77642328D01*
X170616206Y-77642335D01*
X170702452Y-77757544D01*
X170702455Y-77757547D01*
X170817664Y-77843793D01*
X170817671Y-77843797D01*
X170952517Y-77894091D01*
X170952516Y-77894091D01*
X170959444Y-77894835D01*
X171012127Y-77900500D01*
X172907872Y-77900499D01*
X172967483Y-77894091D01*
X173102331Y-77843796D01*
X173217546Y-77757546D01*
X173303796Y-77642331D01*
X173332455Y-77565493D01*
X173374326Y-77509559D01*
X173439790Y-77485141D01*
X173508063Y-77499992D01*
X173539866Y-77524843D01*
X173545046Y-77530469D01*
X173548215Y-77533912D01*
X173548222Y-77533918D01*
X173731365Y-77676464D01*
X173731371Y-77676468D01*
X173731374Y-77676470D01*
X173935497Y-77786936D01*
X174049487Y-77826068D01*
X174155015Y-77862297D01*
X174155017Y-77862297D01*
X174155019Y-77862298D01*
X174383951Y-77900500D01*
X174383952Y-77900500D01*
X174616048Y-77900500D01*
X174616049Y-77900500D01*
X174844981Y-77862298D01*
X175064503Y-77786936D01*
X175268626Y-77676470D01*
X175451784Y-77533913D01*
X175608979Y-77363153D01*
X175735924Y-77168849D01*
X175829157Y-76956300D01*
X175886134Y-76731305D01*
X175905300Y-76500000D01*
X175905300Y-76499993D01*
X175886135Y-76268702D01*
X175886133Y-76268691D01*
X175829157Y-76043699D01*
X175735924Y-75831151D01*
X175608983Y-75636852D01*
X175608980Y-75636849D01*
X175608979Y-75636847D01*
X175530996Y-75552135D01*
X184059500Y-75552135D01*
X184059500Y-77447870D01*
X184059501Y-77447876D01*
X184065908Y-77507483D01*
X184116202Y-77642328D01*
X184116206Y-77642335D01*
X184202452Y-77757544D01*
X184202455Y-77757547D01*
X184317664Y-77843793D01*
X184317671Y-77843797D01*
X184452517Y-77894091D01*
X184452516Y-77894091D01*
X184459444Y-77894835D01*
X184512127Y-77900500D01*
X186407872Y-77900499D01*
X186467483Y-77894091D01*
X186602331Y-77843796D01*
X186717546Y-77757546D01*
X186803796Y-77642331D01*
X186832455Y-77565493D01*
X186874326Y-77509559D01*
X186939790Y-77485141D01*
X187008063Y-77499992D01*
X187039866Y-77524843D01*
X187045046Y-77530469D01*
X187048215Y-77533912D01*
X187048222Y-77533918D01*
X187231365Y-77676464D01*
X187231371Y-77676468D01*
X187231374Y-77676470D01*
X187435497Y-77786936D01*
X187549487Y-77826068D01*
X187655015Y-77862297D01*
X187655017Y-77862297D01*
X187655019Y-77862298D01*
X187883951Y-77900500D01*
X187883952Y-77900500D01*
X188116048Y-77900500D01*
X188116049Y-77900500D01*
X188344981Y-77862298D01*
X188564503Y-77786936D01*
X188768626Y-77676470D01*
X188951784Y-77533913D01*
X189108979Y-77363153D01*
X189235924Y-77168849D01*
X189329157Y-76956300D01*
X189386134Y-76731305D01*
X189405300Y-76500000D01*
X189405300Y-76499993D01*
X189386135Y-76268702D01*
X189386133Y-76268691D01*
X189329157Y-76043699D01*
X189235924Y-75831151D01*
X189108983Y-75636852D01*
X189108980Y-75636849D01*
X189108979Y-75636847D01*
X188951784Y-75466087D01*
X188951779Y-75466083D01*
X188951777Y-75466081D01*
X188768634Y-75323535D01*
X188768628Y-75323531D01*
X188564504Y-75213064D01*
X188564495Y-75213061D01*
X188344984Y-75137702D01*
X188154450Y-75105908D01*
X188116049Y-75099500D01*
X187883951Y-75099500D01*
X187845550Y-75105908D01*
X187655015Y-75137702D01*
X187435504Y-75213061D01*
X187435495Y-75213064D01*
X187231371Y-75323531D01*
X187231365Y-75323535D01*
X187048222Y-75466081D01*
X187048218Y-75466085D01*
X187048216Y-75466086D01*
X187048216Y-75466087D01*
X187039870Y-75475154D01*
X187039866Y-75475158D01*
X186979979Y-75511148D01*
X186910141Y-75509047D01*
X186852525Y-75469522D01*
X186832455Y-75434507D01*
X186803797Y-75357671D01*
X186803793Y-75357664D01*
X186717547Y-75242455D01*
X186717544Y-75242452D01*
X186602335Y-75156206D01*
X186602328Y-75156202D01*
X186467482Y-75105908D01*
X186467483Y-75105908D01*
X186407883Y-75099501D01*
X186407881Y-75099500D01*
X186407873Y-75099500D01*
X186407864Y-75099500D01*
X184512129Y-75099500D01*
X184512123Y-75099501D01*
X184452516Y-75105908D01*
X184317671Y-75156202D01*
X184317664Y-75156206D01*
X184202455Y-75242452D01*
X184202452Y-75242455D01*
X184116206Y-75357664D01*
X184116202Y-75357671D01*
X184065908Y-75492517D01*
X184059501Y-75552116D01*
X184059501Y-75552123D01*
X184059500Y-75552135D01*
X175530996Y-75552135D01*
X175451784Y-75466087D01*
X175451779Y-75466083D01*
X175451777Y-75466081D01*
X175268634Y-75323535D01*
X175268628Y-75323531D01*
X175064504Y-75213064D01*
X175064495Y-75213061D01*
X174844984Y-75137702D01*
X174654450Y-75105908D01*
X174616049Y-75099500D01*
X174383951Y-75099500D01*
X174345550Y-75105908D01*
X174155015Y-75137702D01*
X173935504Y-75213061D01*
X173935495Y-75213064D01*
X173731371Y-75323531D01*
X173731365Y-75323535D01*
X173548222Y-75466081D01*
X173548218Y-75466085D01*
X173548216Y-75466086D01*
X173548216Y-75466087D01*
X173539870Y-75475154D01*
X173539866Y-75475158D01*
X173479979Y-75511148D01*
X173410141Y-75509047D01*
X173352525Y-75469522D01*
X173332455Y-75434507D01*
X173303797Y-75357671D01*
X173303793Y-75357664D01*
X173217547Y-75242455D01*
X173217544Y-75242452D01*
X173102335Y-75156206D01*
X173102328Y-75156202D01*
X172967482Y-75105908D01*
X172967483Y-75105908D01*
X172907883Y-75099501D01*
X172907881Y-75099500D01*
X172907873Y-75099500D01*
X172907864Y-75099500D01*
X171012129Y-75099500D01*
X171012123Y-75099501D01*
X170952516Y-75105908D01*
X170817671Y-75156202D01*
X170817664Y-75156206D01*
X170702455Y-75242452D01*
X170702452Y-75242455D01*
X170616206Y-75357664D01*
X170616202Y-75357671D01*
X170565908Y-75492517D01*
X170559501Y-75552116D01*
X170559501Y-75552123D01*
X170559500Y-75552135D01*
X162440499Y-75552135D01*
X162440499Y-75552128D01*
X162434091Y-75492517D01*
X162425514Y-75469522D01*
X162383797Y-75357671D01*
X162383793Y-75357664D01*
X162297547Y-75242455D01*
X162297544Y-75242452D01*
X162182335Y-75156206D01*
X162182328Y-75156202D01*
X162047482Y-75105908D01*
X162047483Y-75105908D01*
X161987883Y-75099501D01*
X161987881Y-75099500D01*
X161987873Y-75099500D01*
X161987864Y-75099500D01*
X160092129Y-75099500D01*
X160092123Y-75099501D01*
X160032516Y-75105908D01*
X159897671Y-75156202D01*
X159897664Y-75156206D01*
X159782455Y-75242452D01*
X159782452Y-75242455D01*
X159696206Y-75357664D01*
X159696203Y-75357670D01*
X159667544Y-75434508D01*
X159625672Y-75490441D01*
X159560208Y-75514858D01*
X159491935Y-75500006D01*
X159460135Y-75475158D01*
X159451784Y-75466087D01*
X159451778Y-75466082D01*
X159451777Y-75466081D01*
X159268634Y-75323535D01*
X159268628Y-75323531D01*
X159064504Y-75213064D01*
X159064495Y-75213061D01*
X158844984Y-75137702D01*
X158654450Y-75105908D01*
X158616049Y-75099500D01*
X158383951Y-75099500D01*
X158345550Y-75105908D01*
X158155015Y-75137702D01*
X157935504Y-75213061D01*
X157935495Y-75213064D01*
X157731371Y-75323531D01*
X157731365Y-75323535D01*
X157548222Y-75466081D01*
X157548219Y-75466084D01*
X157548216Y-75466086D01*
X157548216Y-75466087D01*
X157508669Y-75509047D01*
X157391016Y-75636852D01*
X157264075Y-75831151D01*
X157170842Y-76043699D01*
X157113866Y-76268691D01*
X157113864Y-76268702D01*
X157094700Y-76499993D01*
X148905300Y-76499993D01*
X148886135Y-76268702D01*
X148886133Y-76268691D01*
X148829157Y-76043699D01*
X148735924Y-75831151D01*
X148608983Y-75636852D01*
X148608980Y-75636849D01*
X148608979Y-75636847D01*
X148451784Y-75466087D01*
X148451779Y-75466083D01*
X148451777Y-75466081D01*
X148268634Y-75323535D01*
X148268628Y-75323531D01*
X148064504Y-75213064D01*
X148064495Y-75213061D01*
X147844984Y-75137702D01*
X147654450Y-75105908D01*
X147616049Y-75099500D01*
X147383951Y-75099500D01*
X147345550Y-75105908D01*
X147155015Y-75137702D01*
X146935504Y-75213061D01*
X146935495Y-75213064D01*
X146731371Y-75323531D01*
X146731365Y-75323535D01*
X146548222Y-75466081D01*
X146548218Y-75466085D01*
X146548216Y-75466086D01*
X146548216Y-75466087D01*
X146539870Y-75475154D01*
X146539866Y-75475158D01*
X146479979Y-75511148D01*
X146410141Y-75509047D01*
X146352525Y-75469522D01*
X146332455Y-75434507D01*
X146303797Y-75357671D01*
X146303793Y-75357664D01*
X146217547Y-75242455D01*
X146217544Y-75242452D01*
X146102335Y-75156206D01*
X146102328Y-75156202D01*
X145967482Y-75105908D01*
X145967483Y-75105908D01*
X145907883Y-75099501D01*
X145907881Y-75099500D01*
X145907873Y-75099500D01*
X145907864Y-75099500D01*
X144012129Y-75099500D01*
X144012123Y-75099501D01*
X143952516Y-75105908D01*
X143817671Y-75156202D01*
X143817664Y-75156206D01*
X143702455Y-75242452D01*
X143702452Y-75242455D01*
X143616206Y-75357664D01*
X143616202Y-75357671D01*
X143565908Y-75492517D01*
X143559501Y-75552116D01*
X143559501Y-75552123D01*
X143559500Y-75552135D01*
X100500000Y-75552135D01*
X100500000Y-53124000D01*
X100519685Y-53056961D01*
X100572489Y-53011206D01*
X100624000Y-53000000D01*
X201876000Y-53000000D01*
X201943039Y-53019685D01*
G37*
%TD.AperFunction*%
%TD*%
M02*
