M48
; DRILL file {KiCad 8.0.6} date 2024-11-05T10:43:59+0200
; FORMAT={-:-/ absolute / inch / decimal}
; #@! TF.CreationDate,2024-11-05T10:43:59+02:00
; #@! TF.GenerationSoftware,Kicad,Pcbnew,8.0.6
; #@! TF.FileFunction,Plated,1,2,PTH
FMAT,2
INCH
; #@! TA.AperFunction,Plated,PTH,ViaDrill
T1C0.0118
; #@! TA.AperFunction,Plated,PTH,ComponentDrill
T2C0.0295
; #@! TA.AperFunction,Plated,PTH,ComponentDrill
T3C0.0354
; #@! TA.AperFunction,Plated,PTH,ViaDrill
T4C0.0394
%
G90
G05
T1
X4.2717Y-3.4646
X4.4488Y-4.0551
T2
X5.163Y-3.513
X5.163Y-3.563
X5.163Y-3.613
X5.7142Y-3.513
X5.7142Y-3.563
X5.7142Y-3.613
X6.2386Y-3.513
X6.2386Y-3.563
X6.2386Y-3.613
X6.7772Y-3.513
X6.7772Y-3.563
X6.7772Y-3.613
X7.3087Y-3.513
X7.3087Y-3.563
X7.3087Y-3.613
T3
X5.7071Y-3.0118
X5.8071Y-3.0118
X6.2402Y-3.0118
X6.3402Y-3.0118
X6.7701Y-3.0118
X6.8701Y-3.0118
X7.3016Y-3.0118
X7.4016Y-3.0118
T4
X4.3307Y-4.3701
X4.3307Y-4.5079
M30
