%TF.GenerationSoftware,KiCad,Pcbnew,8.0.6*%
%TF.CreationDate,2024-11-05T10:43:43+02:00*%
%TF.ProjectId,led_control_system,6c65645f-636f-46e7-9472-6f6c5f737973,rev?*%
%TF.SameCoordinates,Original*%
%TF.FileFunction,Copper,L1,Top*%
%TF.FilePolarity,Positive*%
%FSLAX46Y46*%
G04 Gerber Fmt 4.6, Leading zero omitted, Abs format (unit mm)*
G04 Created by KiCad (PCBNEW 8.0.6) date 2024-11-05 10:43:43*
%MOMM*%
%LPD*%
G01*
G04 APERTURE LIST*
G04 Aperture macros list*
%AMRoundRect*
0 Rectangle with rounded corners*
0 $1 Rounding radius*
0 $2 $3 $4 $5 $6 $7 $8 $9 X,Y pos of 4 corners*
0 Add a 4 corners polygon primitive as box body*
4,1,4,$2,$3,$4,$5,$6,$7,$8,$9,$2,$3,0*
0 Add four circle primitives for the rounded corners*
1,1,$1+$1,$2,$3*
1,1,$1+$1,$4,$5*
1,1,$1+$1,$6,$7*
1,1,$1+$1,$8,$9*
0 Add four rect primitives between the rounded corners*
20,1,$1+$1,$2,$3,$4,$5,0*
20,1,$1+$1,$4,$5,$6,$7,0*
20,1,$1+$1,$6,$7,$8,$9,0*
20,1,$1+$1,$8,$9,$2,$3,0*%
%AMFreePoly0*
4,1,82,0.030893,0.370107,0.130778,0.370107,0.389412,0.331124,0.639347,0.254029,0.875000,0.140544,1.091107,-0.006795,1.282841,-0.184698,1.445918,-0.389190,1.576696,-0.615703,1.672252,-0.859178,1.730454,-1.114176,1.750000,-1.375000,1.730454,-1.635824,1.672252,-1.890822,1.576696,-2.134297,1.445918,-2.360810,1.282841,-2.565302,1.091107,-2.743205,0.875000,-2.890544,0.639347,-3.004029,
0.389412,-3.081124,0.130778,-3.120107,-0.130778,-3.120107,-0.389412,-3.081124,-0.639347,-3.004029,-0.875000,-2.890544,-1.091107,-2.743205,-1.282841,-2.565302,-1.445918,-2.360810,-1.576696,-2.134297,-1.672252,-1.890822,-1.730454,-1.635824,-1.750000,-1.375000,-1.004839,-1.375000,-0.985531,-1.571034,-0.928350,-1.759535,-0.835493,-1.933259,-0.710528,-2.085528,-0.558259,-2.210493,-0.384535,-2.303350,
-0.196034,-2.360531,0.000000,-2.379839,0.196034,-2.360531,0.384535,-2.303350,0.558259,-2.210493,0.710528,-2.085528,0.835493,-1.933259,0.928350,-1.759535,0.985531,-1.571034,1.004839,-1.375000,0.985531,-1.178966,0.928350,-0.990465,0.835493,-0.816741,0.710528,-0.664472,0.558259,-0.539507,0.384535,-0.446650,0.196034,-0.389469,0.018838,-0.372016,0.000000,-0.375000,-0.018838,-0.372016,
-0.196034,-0.389469,-0.384535,-0.446650,-0.558259,-0.539507,-0.710528,-0.664472,-0.835493,-0.816741,-0.928350,-0.990465,-0.985531,-1.178966,-1.004839,-1.375000,-1.750000,-1.375000,-1.730454,-1.114176,-1.672252,-0.859178,-1.576696,-0.615703,-1.445918,-0.389190,-1.282841,-0.184698,-1.091107,-0.006795,-0.875000,0.140544,-0.639347,0.254029,-0.389412,0.331124,-0.130778,0.370107,-0.030893,0.370107,
0.000000,0.375000,0.030893,0.370107,0.030893,0.370107,$1*%
G04 Aperture macros list end*
%TA.AperFunction,NonConductor*%
%ADD10C,0.200000*%
%TD*%
%TA.AperFunction,SMDPad,CuDef*%
%ADD11RoundRect,0.250000X-1.075000X0.312500X-1.075000X-0.312500X1.075000X-0.312500X1.075000X0.312500X0*%
%TD*%
%TA.AperFunction,ComponentPad*%
%ADD12R,1.500000X1.050000*%
%TD*%
%TA.AperFunction,ComponentPad*%
%ADD13O,1.500000X1.050000*%
%TD*%
%TA.AperFunction,ComponentPad*%
%ADD14R,1.800000X1.800000*%
%TD*%
%TA.AperFunction,ComponentPad*%
%ADD15C,1.800000*%
%TD*%
%TA.AperFunction,SMDPad,CuDef*%
%ADD16RoundRect,0.250000X-1.100000X0.325000X-1.100000X-0.325000X1.100000X-0.325000X1.100000X0.325000X0*%
%TD*%
%TA.AperFunction,SMDPad,CuDef*%
%ADD17FreePoly0,0.000000*%
%TD*%
%TA.AperFunction,SMDPad,CuDef*%
%ADD18C,1.000000*%
%TD*%
%TA.AperFunction,ViaPad*%
%ADD19C,0.600000*%
%TD*%
%TA.AperFunction,ViaPad*%
%ADD20C,2.000000*%
%TD*%
%TA.AperFunction,Conductor*%
%ADD21C,0.200000*%
%TD*%
G04 APERTURE END LIST*
D10*
X202000000Y-53000000D02*
X100500000Y-53000000D01*
X202000000Y-125000000D02*
X202000000Y-53000000D01*
X100500000Y-53000000D02*
X100500000Y-125000000D01*
X100500000Y-125000000D02*
X202000000Y-125000000D01*
D11*
%TO.P,R2,1*%
%TO.N,+9V*%
X121500000Y-67537500D03*
%TO.P,R2,2*%
%TO.N,Net-(Q1-B)*%
X121500000Y-70462500D03*
%TD*%
%TO.P,R4,1*%
%TO.N,Net-(Q2-E)*%
X145000000Y-103537500D03*
%TO.P,R4,2*%
%TO.N,GND*%
X145000000Y-106462500D03*
%TD*%
D12*
%TO.P,Q3,1,C*%
%TO.N,Net-(D2-K)*%
X158460000Y-89230000D03*
D13*
%TO.P,Q3,2,B*%
%TO.N,Net-(Q1-C)*%
X158460000Y-90500000D03*
%TO.P,Q3,3,E*%
%TO.N,Net-(Q3-E)*%
X158460000Y-91770000D03*
%TD*%
D12*
%TO.P,Q1,1,C*%
%TO.N,Net-(Q1-C)*%
X131140000Y-89230000D03*
D13*
%TO.P,Q1,2,B*%
%TO.N,Net-(Q1-B)*%
X131140000Y-90500000D03*
%TO.P,Q1,3,E*%
%TO.N,GND*%
X131140000Y-91770000D03*
%TD*%
D14*
%TO.P,D3,1,K*%
%TO.N,Net-(D3-K)*%
X171960000Y-76500000D03*
D15*
%TO.P,D3,2,A*%
%TO.N,+9V*%
X174500000Y-76500000D03*
%TD*%
D11*
%TO.P,R6,1*%
%TO.N,Net-(Q4-E)*%
X172000000Y-103537500D03*
%TO.P,R6,2*%
%TO.N,GND*%
X172000000Y-106462500D03*
%TD*%
D14*
%TO.P,D4,1,K*%
%TO.N,Net-(D4-K)*%
X185460000Y-76500000D03*
D15*
%TO.P,D4,2,A*%
%TO.N,+9V*%
X188000000Y-76500000D03*
%TD*%
D14*
%TO.P,D1,1,K*%
%TO.N,Net-(D1-K)*%
X144960000Y-76500000D03*
D15*
%TO.P,D1,2,A*%
%TO.N,+9V*%
X147500000Y-76500000D03*
%TD*%
D12*
%TO.P,Q4,1,C*%
%TO.N,Net-(D3-K)*%
X172140000Y-89230000D03*
D13*
%TO.P,Q4,2,B*%
%TO.N,Net-(Q1-C)*%
X172140000Y-90500000D03*
%TO.P,Q4,3,E*%
%TO.N,Net-(Q4-E)*%
X172140000Y-91770000D03*
%TD*%
D11*
%TO.P,R1,1*%
%TO.N,+9V*%
X113000000Y-67537500D03*
%TO.P,R1,2*%
%TO.N,Net-(MK1-+)*%
X113000000Y-70462500D03*
%TD*%
%TO.P,R5,1*%
%TO.N,Net-(Q3-E)*%
X158500000Y-103537500D03*
%TO.P,R5,2*%
%TO.N,GND*%
X158500000Y-106462500D03*
%TD*%
D12*
%TO.P,Q5,1,C*%
%TO.N,Net-(D4-K)*%
X185640000Y-89230000D03*
D13*
%TO.P,Q5,2,B*%
%TO.N,Net-(Q1-C)*%
X185640000Y-90500000D03*
%TO.P,Q5,3,E*%
%TO.N,Net-(Q5-E)*%
X185640000Y-91770000D03*
%TD*%
D16*
%TO.P,C1,1*%
%TO.N,Net-(MK1-+)*%
X113000000Y-86025000D03*
%TO.P,C1,2*%
%TO.N,Net-(Q1-B)*%
X113000000Y-88975000D03*
%TD*%
D11*
%TO.P,R3,1*%
%TO.N,+9V*%
X129500000Y-67537500D03*
%TO.P,R3,2*%
%TO.N,Net-(Q1-C)*%
X129500000Y-70462500D03*
%TD*%
D14*
%TO.P,D2,1,K*%
%TO.N,Net-(D2-K)*%
X161040000Y-76500000D03*
D15*
%TO.P,D2,2,A*%
%TO.N,+9V*%
X158500000Y-76500000D03*
%TD*%
D17*
%TO.P,MK1,1,-*%
%TO.N,GND*%
X113000000Y-101625000D03*
D18*
%TO.P,MK1,2,+*%
%TO.N,Net-(MK1-+)*%
X113000000Y-103000000D03*
%TD*%
D11*
%TO.P,R7,1*%
%TO.N,Net-(Q5-E)*%
X185500000Y-103537500D03*
%TO.P,R7,2*%
%TO.N,GND*%
X185500000Y-106462500D03*
%TD*%
D12*
%TO.P,Q2,1,C*%
%TO.N,Net-(D1-K)*%
X145140000Y-89230000D03*
D13*
%TO.P,Q2,2,B*%
%TO.N,Net-(Q1-C)*%
X145140000Y-90500000D03*
%TO.P,Q2,3,E*%
%TO.N,Net-(Q2-E)*%
X145140000Y-91770000D03*
%TD*%
D19*
%TO.N,Net-(MK1-+)*%
X108500000Y-88000000D03*
X113000000Y-103000000D03*
D20*
%TO.N,+9V*%
X110000000Y-114500000D03*
%TO.N,GND*%
X110000000Y-111000000D03*
%TD*%
D21*
%TO.N,Net-(Q1-B)*%
X131140000Y-90500000D02*
X125000000Y-90500000D01*
X125000000Y-90500000D02*
X120525000Y-86025000D01*
X120525000Y-86025000D02*
X117575000Y-88975000D01*
X120525000Y-71437500D02*
X120525000Y-86025000D01*
X121500000Y-70462500D02*
X120525000Y-71437500D01*
X117575000Y-88975000D02*
X113000000Y-88975000D01*
%TO.N,Net-(MK1-+)*%
X113000000Y-70462500D02*
X113000000Y-86025000D01*
X113000000Y-86025000D02*
X108525000Y-86025000D01*
X108500000Y-86000000D02*
X108500000Y-88000000D01*
X108525000Y-86025000D02*
X108500000Y-86000000D01*
%TO.N,+9V*%
X147500000Y-76500000D02*
X158500000Y-76500000D01*
X110000000Y-114500000D02*
X106000000Y-110500000D01*
X147500000Y-67500000D02*
X147500000Y-76500000D01*
X158500000Y-76500000D02*
X158500000Y-67500000D01*
X187500000Y-67500000D02*
X188000000Y-68000000D01*
X129500000Y-67537500D02*
X147462500Y-67537500D01*
X106000000Y-70000000D02*
X108462500Y-67537500D01*
X188000000Y-68000000D02*
X188000000Y-76500000D01*
X147462500Y-67537500D02*
X147500000Y-67500000D01*
X121500000Y-67537500D02*
X129500000Y-67537500D01*
X106000000Y-110500000D02*
X106000000Y-70000000D01*
X174500000Y-67500000D02*
X187500000Y-67500000D01*
X174500000Y-76500000D02*
X174500000Y-67500000D01*
X113000000Y-67537500D02*
X121500000Y-67537500D01*
X108462500Y-67537500D02*
X113000000Y-67537500D01*
X158500000Y-67500000D02*
X174500000Y-67500000D01*
%TO.N,Net-(D1-K)*%
X144960000Y-89050000D02*
X145140000Y-89230000D01*
X144960000Y-76500000D02*
X144960000Y-89050000D01*
%TO.N,Net-(D2-K)*%
X161040000Y-86650000D02*
X158460000Y-89230000D01*
X161040000Y-76500000D02*
X161040000Y-86650000D01*
%TO.N,Net-(D3-K)*%
X171960000Y-76500000D02*
X171960000Y-89050000D01*
X171960000Y-89050000D02*
X172140000Y-89230000D01*
%TO.N,Net-(D4-K)*%
X185460000Y-76500000D02*
X185460000Y-89050000D01*
X185460000Y-89050000D02*
X185640000Y-89230000D01*
%TO.N,GND*%
X110000000Y-111000000D02*
X110000000Y-104625000D01*
X131140000Y-91770000D02*
X122480000Y-91770000D01*
X122480000Y-91770000D02*
X113000000Y-101250000D01*
X145000000Y-106462500D02*
X117837500Y-106462500D01*
X117837500Y-106462500D02*
X113000000Y-101625000D01*
X172000000Y-106462500D02*
X158500000Y-106462500D01*
X185500000Y-106462500D02*
X172000000Y-106462500D01*
X158500000Y-106462500D02*
X145000000Y-106462500D01*
X110000000Y-104625000D02*
X113000000Y-101625000D01*
%TO.N,Net-(Q1-C)*%
X172140000Y-90500000D02*
X158460000Y-90500000D01*
X158460000Y-90500000D02*
X145140000Y-90500000D01*
X185640000Y-90500000D02*
X172140000Y-90500000D01*
X131140000Y-72102500D02*
X131140000Y-89230000D01*
X129500000Y-70462500D02*
X131140000Y-72102500D01*
X131261726Y-89230000D02*
X131140000Y-89230000D01*
X132531726Y-90500000D02*
X131261726Y-89230000D01*
X145140000Y-90500000D02*
X132531726Y-90500000D01*
%TO.N,Net-(Q2-E)*%
X145140000Y-103397500D02*
X145000000Y-103537500D01*
X145140000Y-91770000D02*
X145140000Y-103397500D01*
%TO.N,Net-(Q3-E)*%
X158460000Y-103497500D02*
X158500000Y-103537500D01*
X158460000Y-91770000D02*
X158460000Y-103497500D01*
%TO.N,Net-(Q4-E)*%
X172140000Y-103397500D02*
X172000000Y-103537500D01*
X172140000Y-91770000D02*
X172140000Y-103397500D01*
%TO.N,Net-(Q5-E)*%
X185640000Y-103397500D02*
X185500000Y-103537500D01*
X185640000Y-91770000D02*
X185640000Y-103397500D01*
%TD*%
M02*
